<?xml version="1.0" encoding="UTF-8"?>
<svg id="Layer_1" data-name="Layer 1" xmlns="http://www.w3.org/2000/svg" viewBox="0 0 213.9 205.7">
  <defs>
    <style>
      .cls-1, .cls-2, .cls-3 {
        fill: none;
      }

      .cls-1, .cls-2, .cls-3, .cls-4, .cls-5, .cls-6, .cls-7, .cls-8, .cls-9, .cls-10, .cls-11 {
        stroke-width: 0px;
      }

      .cls-2 {
        stroke: #fe9513;
      }

      .cls-2, .cls-3 {
        stroke-linecap: round;
        stroke-linejoin: round;
      }

      .cls-3 {
        stroke: #c4ebec;
      }

      .cls-4 {
        fill: #fc1d1f;
      }

      .cls-5 {
        fill: #280212;
      }

      .cls-6 {
        fill: #290412;
      }

      .cls-7 {
        fill: #c4ebec;
      }

      .cls-8 {
        fill: #dcf2f3;
      }

      .cls-9 {
        fill: #fdfdfd;
      }

      .cls-10 {
        fill: #fdab03;
      }

      .cls-11 {
        fill: #ffb533;
      }
    </style>
  </defs>
  <path class="cls-11" d="m213.9,205.7l-53.9-35.2-124.6,1.6C16.1,166.4.3,156.5.2,137.1L0,35.2C0,15.8,15.7,0,35,0l126.5,5.2c19.4,0,35.2,15.7,35.2,35l.2,103.7,16.9,61.7Z"/>
  <g>
    <path class="cls-1" d="m81.3,25.9c0,0-.2-.2-.3-.2,0,0,0,0,0,0,.2,0,.3.1.3.2Z"/>
    <path class="cls-1" d="m107.1,62.9s0,0-.2,0c0,0,.1,0,.2,0Z"/>
    <path class="cls-1" d="m133.1,41.9c-.2,0-.4.1-.7.2-.7,0-1.4,0-2.2.2.7,0,1.4-.1,2.2-.2.2,0,.5-.1.7-.2Z"/>
    <path class="cls-1" d="m81.1,27.2c0,0,0-.2,0-.3,0-.2,0-.3,0-.5,0,.2,0,.3,0,.5,0,0,0,.2,0,.3Z"/>
    <path class="cls-1" d="m77.8,52.2c.2.1.3.2.5.4-.2-.1-.3-.3-.5-.4Z"/>
    <path class="cls-1" d="m81.3,26s0,0,0,0c0,0,0,0,0,0Z"/>
    <path class="cls-1" d="m77.5,52c-.3-.1-.6-.2-.9-.2-.4-.5-.8-.9-1.2-1.4.4.5.8.9,1.2,1.4.3,0,.6,0,.9.2Z"/>
    <path class="cls-1" d="m79.5,22.3c-.2-.1-.5-.2-.9-.1h0c.3,0,.6,0,.9.1Z"/>
    <path class="cls-1" d="m123.6,150.2c.7.2,1.4.3,2.2.3-.7,0-1.4,0-2.2-.3-1.4.4-2.7.6-4.1.7,1.4-.1,2.7-.3,4.1-.7Z"/>
    <path class="cls-1" d="m150.4,90.9c.2-.3.5-.6.7-.9.2-.3.5-.6.7-.9-.2.3-.5.6-.7.9-.2.3-.4.6-.7.9Z"/>
    <path class="cls-1" d="m116.7,52.9h0c0,0-.2.2-.3.3-1.2,1.4-2.3,2.9-3.2,4.5.9-1.5,2-3,3.2-4.5,0,0,.2-.2.3-.3Z"/>
    <polygon class="cls-1" points="116.7 52.9 116.7 52.9 116.7 52.9 116.7 52.9"/>
    <path class="cls-1" d="m116.9,106.4c.3.3.7.4,1,.6h0c2.2,1.6,4.3,3.3,6.1,5.2-1.9-1.9-3.9-3.6-6.1-5.1,0,0,0,0,0,0-.4-.2-.7-.3-1-.6Z"/>
    <path class="cls-1" d="m149,92.5c-2,2-4.3,3.6-6.9,4.8,2.6-1.2,4.9-2.8,6.9-4.8Z"/>
    <polygon class="cls-1" points="68.2 104.5 68.2 104.4 68.2 104.5 68.2 104.5"/>
    <path class="cls-1" d="m116.5,106.1s0,0,.1,0h0s0,0-.1,0Z"/>
    <path class="cls-6" d="m74.6,26.6c-2.9-2-6.2-2.5-9.5-2.6-5.2-.2-10.2,1.1-15.1,3-.7.3-1.4.5-2.1.8,0,0-.1,0-.2,0-1.2.6-2.3,1.2-3.5,1.8-1.2.6-2.4,1.2-3.5,1.9-.3.2-.5.4-.8.7-.1.1-.3.2-.4.3-.3.6-.7,1.1-1.3,1.4-1.2,1.2-2.4,2.3-3.5,3.5-.2.3-.3.5-.5.8-.2.5-.3.9.2,1.3.4.4.9.3,1.4,0,.5-.3.9-.6,1.4-.9,6.1-4.3,12.8-7.4,20.3-8.6,4.5-.8,9-1,13.5-.4.9.1,1.8.3,2.8.2.9,0,1.5-.5,1.8-1.4.2-.8-.1-1.5-.8-2Z"/>
    <polygon class="cls-10" points="70.9 102.9 70.9 102.9 70.9 102.9 70.9 102.9"/>
    <path class="cls-5" d="m117.9,106.9c-.4-.2-.7-.3-1-.6,0,0-.2-.2-.3-.3,0,0,0,0-.1,0,0,0-.1,0-.2,0,0,0-.2-.1-.2-.2,0,0,0,0,0,0-1.6-.9-3.3-1.8-5-2.5-2.8-1.2-5.8-2.2-8.9-2.9-9.6-2-19.2-2.2-28.5,1.3-1,.4-1.9.8-2.8,1.2,0,0,0,0,0,0-.2,0-.3.2-.5.3,0,0,0,0,0,0-.6.6-1.4,1-2.2,1.3,0,0,0,0,0,0-.1,0-.2.2-.3.3-.5.4-1,.8-1.5,1.1-2.3,1.8-4.4,3.9-5.9,6.4-.4.6-.9,1.5-.2,1.9,1.2.9.4,1.6,0,2.4-3.4,7.7-4.7,15.4-.7,23.3,2.3,3.5,5.6,5.7,9.7,6.6,1.9.4,3.8.5,5.7.7,7,.7,13.9,1.4,20.9,2.1,5.4.5,10.7,1.1,16.1,1.5,1.4.1,2.9.2,4.3.2,1,0,2.1,0,3.1,0,1.4-.1,2.7-.3,4.1-.7,5.7-1.7,8.8-5.7,9.9-11.3.9-4.4.2-8.7-1.4-12.8-.3-.7-.9-1.4-.8-2.1.2-2.3-1.3-3.8-2.3-5.6-1.4-2.3-3-4.4-4.9-6.3-1.9-1.9-3.9-3.6-6.1-5.1h0Zm-35.9-3.8c.6-.7,2.2-.5,3.3-.5,7-.6,13.9.4,20.7,2.3-.1.5-.3.9-.7,1.2-.8,1.4-1.5,2.9-2.3,4.3-.6,1-1.5,1.6-2.8,1.5-4.9-.5-9.7-.9-14.6-1.4-1.7-.2-2.5-1.4-2.9-3.7,0-.2-.2-.5-.3-.7-.3-1-1.1-2.4-.6-3Zm47.5,34.3c1.2.8,1.3,1.6.8,2.8-2,4.6-5.6,6.8-10.5,7.3-4.5.5-8.9-.3-13.3-.7-5.3-.4-10.6-1-15.9-1.5-4.7-.5-9.5-.9-14.2-1.3-1,0-.7-.4-.3-1,3.1-4.7,7.4-7.8,12.8-9.4,2.8-.9,5.7-1.3,8.6-.7.4,0,1.1,0,1.2.5.1.5-.5.7-.8,1-.3.3-.9.4-1,1.1,1.5-.1,2.7-1.1,4.1-1.5,10.2-3.7,19.7-2.6,28.7,3.4Z"/>
    <path class="cls-5" d="m70.9,102.9h0s0,0,0,0c0,0,0,0,0,0h0Z"/>
    <path class="cls-6" d="m81.9,68.4c-.1-1.3-.5-2.5-.6-3.8-.2-.5-.2-1.1,0-1.8,0-.1,0-.2,0-.3-.8-3.9-2.4-7.4-4.6-10.7-.4-.5-.8-.9-1.2-1.4-8-9.6-21.4-11-31.2-3.1-10.1,8.1-13.2,23.3-7.2,35.2,2.2,4.4,5.3,7.9,9.7,10.4,1.2.7,2.4,1.2,3.6,1.8,1.6.3,3.2.9,4.8,1.1,10,.9,17.3-3.4,22.5-11.5,2.9-4.5,4.2-9.5,4.3-14.8,0-.2,0-.3,0-.5,0-.2,0-.4,0-.6Zm-10.4,18.4c-8.9,8.8-22.4,7.4-29.5-3-3-4.4-4.4-9.3-4.4-15.8.3-6.8,3-13.7,9.6-18.6,7.7-5.7,17.7-4.9,24.4,1.9,9.3,9.4,9.2,26.2-.2,35.5Z"/>
    <path class="cls-6" d="m158.8,64.6c-1.8-8.2-6.1-14.8-13.5-19.3-.7-.4-1.4-.8-2.1-1.1-2.2-1-4.5-1.6-6.9-2.1-.4,0-.7,0-1.1,0-.9,0-1.8,0-2.7,0-.7,0-1.4,0-2.2.2-.7,0-1.4.2-2.1.3-1.4.3-2.8.7-4.1,1.3-8,3.4-12.9,9.5-16,17.4-.1.3-.2.6-.3.9,0,.1,0,.3-.1.4-.7,1.7-1.2,3.5-1.7,5.3.2.3.3.7.2,1.2-.8,6.8.5,13.2,3.5,19.4.2.4.4.7.6,1,.7.9,1.3,1.8,2,2.7.7.9,1.4,1.8,2.2,2.6,10.4,10.3,26.6,10,36.9-1.1,7.6-8.2,9.8-18.1,7.5-28.9Zm-6.3,23.6c-.2.3-.4.6-.7.9-.2.3-.5.6-.7.9-.2.3-.4.6-.7.9-.5.6-.9,1.1-1.5,1.7-2,2-4.3,3.6-6.9,4.8-4.6,2.1-9.9,2.7-14.4,1.4-6.2-1.5-10.6-5.2-13.9-10.4-3.7-5.8-4.7-12.3-4.2-19,0-.8.2-1.6.7-2.2.2-.2.3-.5.3-.7,0-3.2,1.2-6,2.7-8.6.9-1.5,2-3,3.2-4.5,0,0,.2-.2.3-.3,0,0,0,0,0,0h0c.5-.6,1-1.1,1.5-1.6s.5-.5.8-.7c1-1,2.1-1.8,3.3-2.5,2.6-1.6,5.6-2.7,8.9-3.1,8.5-1,15,2.5,20.1,9.1,3.1,3.9,4.9,8.5,5.6,13.4,1.1,7.4-.3,14.4-4.4,20.7Z"/>
    <path class="cls-6" d="m120.9,35.4c.8.6,1.8.5,2.7.2,8.4-2.1,16.8-1.8,25.1.6,2.9.9,5.8,1.8,8.3,3.4,0,0,0,0,0,0,1.2.5,2.4,1.1,3.4,1.9.2,0,.4,0,.5.3,0,0,0,0,0,0,.3,0,.6.2.8.5.2,0,.4.1.5.3h0c.2,0,.3,0,.2.3,1,.7,2,1.4,3,2.2h0c.2,0,.4,0,.5.2.2.1.5.3.7.5.1.1.3.2.4.4,0,0,.1.1.2.2.9.6,1.7.7,2.4-.2,0-.2,0-.3,0-.5,0-.3-.1-.5-.2-.8,0,0,0,0,0,0-.3-.6-.7-1.2-1.1-1.8-.4-.6-.8-1.1-1.2-1.7-8.6-9-19.3-13-31.8-12.8-1.4,0-2.8.2-4.2.5s-2.8.6-4.1.9c0,0,0,0,0,0,0,0,0,0,0,0-.5.4-1,.5-1.6.6-1.1.5-2.2,1-3.2,1.7-.6.4-1.2.8-1.6,1.4-.2.6-.2,1.2,0,1.8Z"/>
    <path class="cls-2" d="m68.2,104.4c-.1,0-.2.2-.3.3"/>
    <path class="cls-4" d="m100.9,134c-1.3.5-2.5,1.4-4.1,1.5,0-.7.7-.7,1-1.1.3-.3,1-.5.8-1-.1-.4-.8-.4-1.2-.5-2.9-.6-5.8-.2-8.6.7-5.4,1.7-9.7,4.8-12.8,9.4-.3.5-.7.9.3,1,4.7.4,9.5.9,14.2,1.3,5.3.5,10.6,1.1,15.9,1.5,4.4.3,8.8,1.2,13.3.7,4.9-.5,8.6-2.7,10.5-7.3.5-1.2.4-2-.8-2.8-9-6-18.5-7.1-28.7-3.4Z"/>
    <path class="cls-9" d="m94.9,105.3c-3.7.1-7.4.2-10.9,1.4-.3.1-.7,0-1.1.1.3,2.3,1.1,3.5,2.9,3.7,4.9.5,9.7,1,14.6,1.4,1.3.1,2.2-.5,2.8-1.5.8-1.4,1.5-2.9,2.3-4.3-3.5-.4-7-.9-10.5-.8Z"/>
    <path class="cls-8" d="m83,106.8c.4,0,.7,0,1.1-.1,3.5-1.2,7.3-1.3,10.9-1.4,3.5-.1,7,.4,10.5.8.3-.4.5-.8.7-1.2-6.8-1.9-13.7-2.8-20.7-2.3-1.1,0-2.7-.2-3.3.5-.5.6.4,1.9.6,3,0,.2.2.5.3.7Z"/>
    <path class="cls-9" d="m127.6,98.7c.5-.3,1-.4,1.5-.4,7.2,0,13.6-2.5,19.4-6.7.8-.6,1.4-1.7,2.6-1.7.2-.3.5-.6.7-.9.2-.3.5-.6.7-.9,4.1-6.4,5.5-13.3,4.4-20.7-.7-4.9-2.5-9.4-5.6-13.4-.7.4-1-.3-1.4-.5-2.9-2.1-6-3.6-9.5-4.5-3.8-1-7.7-1.2-11.5-.5-3.9.6-7.5,2-10.8,4.1-.4.2-.8.4-1.3.3,0,0-.2.2-.3.3-1.2,1.4-2.3,2.9-3.2,4.5-1.6,2.6-2.6,5.4-2.7,8.6,0,.2-.1.5-.3.7-.5.7-.7,1.4-.7,2.2-.6,6.8.5,13.2,4.2,19,3.3,5.2,7.7,9,13.9,10.4Zm-8-37.2c4.3-4.2,10-3.1,12.3,2.5,1.9,4.8.3,10.8-3.8,14-4.5,3.4-9.8,1.9-11.6-3.4-.5-1.3-.7-2.6-.6-4,0-3.5,1.2-6.6,3.8-9.1Z"/>
    <path class="cls-9" d="m47.3,49.5c-6.6,4.9-9.4,11.8-9.6,18.6,0,6.5,1.3,11.4,4.4,15.8,7.1,10.4,20.6,11.7,29.5,3,9.4-9.3,9.5-26.1.2-35.5-6.8-6.8-16.7-7.7-24.4-1.9Zm8.5,23.6c-2.1,1.7-4.5,2.6-7.1,1.5-2.8-1.1-3.9-3.5-4.3-6.3,0-.4,0-.8,0-1.2,0-3.9,1.6-7.1,4.8-9.4,3.9-2.7,8.2-1.3,9.9,3.1,1.6,4.2.2,9.4-3.3,12.3Z"/>
    <path class="cls-7" d="m116.7,52.9s0,0,0,0c.5,0,.9,0,1.3-.3,3.3-2.1,6.9-3.4,10.8-4.1,3.9-.6,7.7-.4,11.5.5,3.5.9,6.6,2.4,9.5,4.5.4.3.7.9,1.4.5-5-6.6-11.6-10.1-20.1-9.1-3.3.4-6.3,1.4-8.9,3.1-1.2.7-2.3,1.6-3.3,2.5-.3.2-.5.5-.8.7-.5.5-1,1-1.5,1.6h0s0,0,0,0h0s0,0,0,0Z"/>
    <path class="cls-7" d="m148.5,91.7c-5.8,4.2-12.1,6.6-19.4,6.7-.5,0-1.1,0-1.5.4,4.6,1.3,9.8.7,14.4-1.4,2.6-1.2,4.9-2.8,6.9-4.8.5-.5,1-1.1,1.5-1.7.2-.3.5-.6.7-.9-1.2,0-1.8,1.1-2.6,1.7Z"/>
    <path class="cls-3" d="m116.7,52.9c0,0-.2.2-.3.3"/>
    <path class="cls-3" d="m116.7,52.9s0,0,0,0"/>
    <path class="cls-5" d="m128.1,78.1c4.1-3.2,5.8-9.2,3.8-14-2.3-5.6-8-6.8-12.3-2.5-2.5,2.5-3.7,5.6-3.8,9.1,0,1.4.2,2.7.6,4,1.9,5.3,7.1,6.9,11.6,3.4Z"/>
    <path class="cls-5" d="m49.3,57.7c-3.3,2.3-4.8,5.5-4.8,9.4,0,.4,0,.8,0,1.2.4,2.8,1.5,5.1,4.3,6.3,2.6,1.1,5,.1,7.1-1.5,3.5-2.9,4.9-8,3.3-12.3-1.7-4.4-5.9-5.8-9.9-3.1Z"/>
  </g>
</svg>